# xmcd
#
# Track frame offsets:
# 151
# 14188
# 27835
# 42202
# 54013
# 64956
# 76385
# 91394
# 104495
# 119756
#
# Disc length: 1822 seconds
#
#
# Revision: 0
# Processed by: cddbd v1.5.1PL2 Copyright (c) Steve Scherf et al.
# Submitted via: FreeRIP 2.943 
#
DISCID=84071c0a
DTITLE=Eddie Rabbitt Horizon - Horizon
DYEAR=1900
DGENRE=Country rock
TTITLE0=I love a rainy night
TTITLE1=747
TTITLE2=Drivin' my life away
TTITLE3=Short road to love
TTITLE4=Rockin' with my baby
TTITLE5=I need to fall in love again
TTITLE6=So deep in your love
TTITLE7=What will I write
TTITLE8=Pretty lady
TTITLE9=Just the way it is
EXTD=
EXTT0=
EXTT1=
EXTT2=
EXTT3=
EXTT4=
EXTT5=
EXTT6=
EXTT7=
EXTT8=
EXTT9=
PLAYORDER=
